<?xml version="1.0" standalone="no"?>
<!DOCTYPE svg PUBLIC "-//W3C//DTD SVG 20010904//EN"
 "http://www.w3.org/TR/2001/REC-SVG-20010904/DTD/svg10.dtd">
<svg version="1.0" xmlns="http://www.w3.org/2000/svg"
 width="400.000000pt" height="284.000000pt" viewBox="0 0 400.000000 284.000000"
 preserveAspectRatio="xMidYMid meet">

<g transform="translate(0.000000,284.000000) scale(0.100000,-0.100000)"
fill="#000000" stroke="none">
<path d="M302 2143 l3 -698 33 -3 32 -3 0 65 c0 36 4 66 8 66 4 0 25 -18 46
-39 21 -22 66 -52 100 -68 54 -25 72 -28 161 -28 92 1 105 3 161 32 156 81
235 250 206 444 -28 197 -157 317 -349 327 -110 6 -195 -23 -269 -90 -28 -27
-55 -48 -58 -48 -3 0 -6 167 -6 370 l0 370 -35 0 -35 0 2 -697z m474 12 c93
-27 165 -110 199 -229 47 -160 -47 -361 -191 -410 -95 -32 -230 -11 -295 46
-167 149 -155 452 23 564 69 44 175 56 264 29z"/>
<path d="M3393 2517 c17 -126 142 -258 279 -293 68 -18 161 -15 213 7 l30 12
-48 8 c-175 28 -328 116 -429 247 l-51 67 6 -48z"/>
<path d="M1421 2220 c-138 -51 -216 -149 -243 -308 -32 -187 59 -376 215 -448
56 -26 72 -29 162 -28 85 0 108 4 155 26 31 14 74 45 97 71 48 52 50 50 55
-43 3 -43 5 -45 33 -45 l30 0 3 384 c1 230 -2 389 -7 394 -5 5 -21 7 -35 3
-24 -6 -26 -11 -26 -61 0 -29 -4 -56 -8 -59 -5 -3 -26 13 -48 36 -58 62 -130
90 -239 95 -72 3 -101 -1 -144 -17z m275 -83 c97 -50 154 -142 162 -263 11
-176 -80 -329 -215 -363 -82 -21 -155 -14 -224 22 -246 127 -220 538 39 624
61 21 178 11 238 -20z"/>
<path d="M2385 2219 c-99 -34 -175 -104 -227 -207 -26 -52 -32 -79 -36 -147
-13 -244 143 -422 378 -433 97 -5 166 14 251 69 48 31 49 32 49 82 l0 51 -32
-30 c-83 -77 -171 -109 -277 -102 -120 9 -214 78 -269 197 -22 47 -27 70 -26
141 0 72 5 93 28 140 59 116 151 180 272 188 91 6 163 -15 232 -68 29 -22 55
-40 57 -40 3 0 5 20 5 44 0 39 -4 46 -39 69 -101 67 -250 85 -366 46z"/>
<path d="M3201 2220 c-146 -53 -244 -171 -271 -328 -29 -167 68 -346 230 -425
60 -30 72 -32 170 -32 97 0 110 2 172 32 248 117 313 436 130 643 -98 112
-290 161 -431 110z m289 -91 c110 -58 173 -171 171 -305 -2 -131 -69 -234
-191 -292 -47 -23 -68 -27 -145 -27 -105 0 -156 20 -224 86 -61 60 -93 130
-99 215 -8 124 36 226 130 299 65 51 116 66 214 61 69 -3 91 -9 144 -37z"/>
<path d="M3815 1535 c-27 -81 -80 -168 -132 -215 -99 -90 -166 -125 -338 -171
-85 -23 -104 -24 -355 -23 -252 1 -274 3 -445 33 -99 18 -236 39 -305 47 -155
19 -514 21 -675 5 -485 -49 -1025 -223 -1436 -462 -75 -44 -111 -77 -64 -59
43 17 158 47 280 74 478 108 973 106 1345 -5 124 -36 164 -52 325 -129 349
-167 552 -240 815 -291 165 -32 390 -32 510 0 191 51 327 158 409 324 70 142
82 217 87 560 3 185 1 304 -5 315 -9 16 -10 16 -16 -3z"/>
<path d="M95 126 c-32 -32 -33 -78 -3 -106 26 -24 78 -27 78 -5 0 9 -9 15 -25
15 -55 0 -55 85 0 92 33 4 33 22 1 26 -17 2 -34 -5 -51 -22z"/>
<path d="M346 129 c-33 -26 -35 -75 -6 -107 43 -46 110 -13 110 53 0 39 -28
75 -59 75 -10 0 -30 -9 -45 -21z m70 -33 c10 -40 1 -61 -28 -64 -30 -4 -43 20
-32 62 9 35 51 37 60 2z"/>
<path d="M855 125 c-47 -47 -19 -125 45 -125 38 0 60 29 60 78 0 68 -59 94
-105 47z m71 -29 c9 -36 1 -60 -19 -64 -24 -5 -47 16 -47 42 0 46 55 65 66 22z"/>
<path d="M1133 143 c-9 -3 -13 -28 -13 -75 0 -51 3 -69 13 -66 6 3 13 17 15
31 4 36 21 34 35 -3 6 -17 17 -30 24 -30 16 0 16 10 3 45 -7 18 -7 33 1 47 19
35 -34 69 -78 51z m52 -43 c0 -8 -8 -16 -17 -18 -13 -2 -18 3 -18 18 0 15 5
20 18 18 9 -2 17 -10 17 -18z"/>
<path d="M1566 129 c-33 -26 -36 -79 -6 -109 24 -24 80 -27 80 -5 0 8 -9 15
-19 15 -36 0 -51 12 -51 39 0 33 17 51 47 51 14 0 23 6 23 15 0 22 -43 19 -74
-6z"/>
<path d="M1830 143 c-42 -15 -56 -96 -22 -126 67 -60 154 50 89 111 -23 22
-38 25 -67 15z m54 -46 c10 -41 -4 -68 -33 -65 -20 2 -27 9 -29 31 -5 41 4 57
32 57 16 0 26 -7 30 -23z"/>
<path d="M2568 143 c-15 -4 -18 -16 -18 -74 l0 -69 45 0 c33 0 45 4 45 15 0
10 -10 15 -31 15 -24 0 -30 4 -27 17 2 10 9 19 16 19 6 1 17 2 22 3 22 2 9 21
-15 21 -16 0 -25 6 -25 15 0 9 9 15 24 15 30 0 42 15 20 24 -17 6 -29 6 -56
-1z"/>
<path d="M2822 138 c-38 -19 -46 -85 -15 -120 20 -23 83 -25 83 -3 0 9 -9 15
-22 15 -42 0 -62 28 -47 68 6 16 16 22 40 22 20 0 29 4 27 13 -6 16 -38 19
-66 5z"/>
<path d="M3047 143 c-12 -11 -8 -23 8 -23 10 0 15 -15 17 -57 4 -78 28 -85 28
-8 0 48 3 58 20 62 40 11 14 33 -39 33 -15 0 -31 -3 -34 -7z"/>
<path d="M3499 131 c-48 -39 -19 -131 42 -131 32 0 69 40 69 75 0 32 -37 75
-65 75 -12 0 -33 -8 -46 -19z m72 -32 c16 -31 -4 -71 -34 -67 -39 5 -37 88 2
88 11 0 25 -10 32 -21z"/>
<path d="M610 70 l0 -70 40 0 c29 0 40 4 40 15 0 9 -9 15 -25 15 -24 0 -25 3
-25 55 0 42 -3 55 -15 55 -12 0 -15 -14 -15 -70z"/>
<path d="M2077 133 c-4 -3 -7 -35 -7 -70 l0 -63 45 0 c51 0 66 26 18 32 -26 3
-28 7 -31 56 -3 49 -10 61 -25 45z"/>
<path d="M2310 70 l0 -70 46 0 c50 0 59 22 11 28 -26 3 -27 6 -27 58 0 41 -4
54 -15 54 -12 0 -15 -14 -15 -70z"/>
<path d="M3290 70 c0 -56 3 -70 15 -70 12 0 15 14 15 70 0 56 -3 70 -15 70
-12 0 -15 -14 -15 -70z"/>
<path d="M3760 70 c0 -54 3 -70 14 -70 11 0 16 14 18 48 l3 47 25 -47 c15 -31
31 -48 42 -48 16 0 18 9 18 70 0 54 -3 70 -14 70 -10 0 -16 -13 -18 -37 l-3
-38 -22 38 c-14 23 -30 37 -43 37 -18 0 -20 -6 -20 -70z"/>
</g>
</svg>
