<?xml version="1.0" standalone="no"?>
<!DOCTYPE svg PUBLIC "-//W3C//DTD SVG 20010904//EN"
 "http://www.w3.org/TR/2001/REC-SVG-20010904/DTD/svg10.dtd">
<svg version="1.0" xmlns="http://www.w3.org/2000/svg"
 width="400.000000pt" height="280.000000pt" viewBox="0 0 400.000000 280.000000"
 preserveAspectRatio="xMidYMid meet">

<g transform="translate(0.000000,280.000000) scale(0.100000,-0.100000)"
fill="#000000" stroke="none">
<path d="M357 1773 c-4 -3 -7 -201 -7 -440 l0 -433 445 0 445 0 0 440 0 440
-438 0 c-241 0 -442 -3 -445 -7z m716 -92 c86 -42 118 -121 78 -188 -28 -46
-83 -79 -311 -190 -299 -145 -373 -219 -282 -279 23 -15 46 -18 156 -16 72 1
128 0 125 -2 -2 -2 -40 -12 -84 -21 -102 -21 -234 -21 -275 0 -62 32 -75 112
-29 179 33 48 129 123 291 230 192 125 214 158 134 202 -39 22 -153 44 -228
44 -62 0 -36 17 58 40 43 10 88 21 99 24 11 2 65 4 120 3 83 -2 108 -6 148
-26z"/>
<path d="M1540 1761 c-98 -35 -160 -132 -160 -253 0 -72 20 -125 67 -178 36
-40 53 -51 108 -65 140 -38 264 9 310 117 22 54 20 58 -29 58 -39 0 -45 -3
-55 -27 -25 -66 -75 -97 -148 -91 -57 5 -92 25 -127 72 -18 23 -21 42 -21 121
0 79 3 98 21 121 36 49 70 67 131 71 69 5 118 -20 136 -68 18 -47 89 -55 95
-11 6 38 -43 101 -96 124 -67 30 -163 33 -232 9z"/>
<path d="M2116 1760 c-63 -25 -109 -69 -137 -134 -18 -43 -21 -63 -16 -131 5
-93 20 -127 75 -177 52 -47 101 -63 192 -63 93 1 158 29 201 88 41 57 39 77
-9 77 -31 0 -43 -6 -61 -31 -74 -100 -233 -89 -288 21 -43 83 -49 80 173 80
114 0 203 4 214 10 42 23 -3 165 -70 223 -67 57 -182 73 -274 37z m192 -77
c34 -25 72 -80 72 -104 0 -18 -11 -19 -160 -19 l-160 0 0 24 c0 34 40 88 80
109 45 23 130 19 168 -10z"/>
<path d="M2722 1765 c-107 -33 -164 -121 -165 -254 0 -93 24 -154 79 -200 130
-107 365 -61 404 79 14 50 14 50 -33 50 -40 0 -44 -2 -56 -35 -18 -52 -86 -89
-150 -83 -96 9 -151 79 -151 190 0 46 6 76 23 108 30 59 64 82 130 88 67 5
108 -14 142 -68 21 -34 30 -40 59 -40 39 0 47 13 33 55 -32 98 -184 151 -315
110z"/>
<path d="M3297 1764 c-165 -51 -222 -291 -102 -431 102 -120 353 -103 420 28
25 47 20 59 -24 59 -34 0 -42 -5 -60 -34 -36 -58 -130 -82 -202 -52 -59 25
-87 60 -105 131 l-6 25 213 2 214 3 -2 49 c-6 175 -165 276 -346 220z m180
-80 c44 -29 73 -70 73 -103 0 -20 -4 -21 -160 -21 -157 0 -160 0 -160 21 0 34
39 88 78 109 54 28 119 26 169 -6z"/>
<path d="M1690 1160 c-6 -11 -8 -25 -5 -30 3 -5 -3 -13 -12 -19 -14 -8 -16
-12 -5 -22 7 -8 12 -41 12 -85 0 -77 7 -107 21 -98 5 3 9 45 9 95 0 72 3 89
15 89 8 0 15 5 15 10 0 6 -7 10 -15 10 -9 0 -15 9 -15 25 0 16 6 25 15 25 8 0
15 5 15 10 0 18 -39 10 -50 -10z"/>
<path d="M3077 1173 c-4 -3 -7 -24 -7 -45 0 -36 -12 -49 -25 -28 -3 6 -24 10
-46 10 -60 0 -89 -33 -89 -102 0 -32 6 -62 15 -76 23 -32 72 -42 113 -23 29
13 34 13 42 1 6 -10 10 36 10 128 0 78 -1 142 -3 142 -2 0 -7 -3 -10 -7z m-28
-109 c31 -39 28 -89 -8 -125 -36 -35 -50 -36 -85 -4 -20 19 -26 33 -26 68 0
80 74 118 119 61z"/>
<path d="M1411 1083 c-30 -37 -36 -68 -22 -114 22 -73 98 -95 151 -44 25 24
30 37 30 76 0 69 -35 109 -95 109 -35 0 -48 -5 -64 -27z m116 -15 c49 -46 14
-150 -50 -150 -59 0 -93 72 -63 130 25 47 74 56 113 20z"/>
<path d="M2047 1092 c-36 -39 -6 -92 53 -92 57 -1 82 -57 35 -78 -39 -18 -51
-15 -78 17 -28 33 -41 31 -25 -4 19 -41 92 -48 134 -12 20 18 25 28 19 46 -7
22 -58 51 -90 51 -27 0 -50 30 -38 49 16 26 68 26 92 0 20 -22 21 -22 21 -3 0
31 -20 44 -65 44 -28 0 -47 -6 -58 -18z"/>
<path d="M2276 1102 c-7 -12 39 -162 59 -189 11 -14 16 -5 41 64 16 45 32 79
35 77 4 -2 17 -35 28 -73 22 -74 37 -94 47 -64 3 10 10 27 14 38 12 29 45 129
45 138 0 4 -4 7 -9 8 -10 0 -46 -104 -46 -134 0 -39 -24 -8 -44 56 -25 79 -41
100 -51 66 -4 -13 -13 -37 -20 -54 -7 -16 -16 -42 -19 -57 -10 -43 -20 -34
-40 40 -23 82 -31 98 -40 84z"/>
<path d="M2656 1079 c-35 -41 -37 -116 -3 -146 39 -36 62 -44 95 -32 31 11 69
55 57 67 -4 4 -11 -1 -16 -11 -17 -30 -65 -49 -92 -36 -28 13 -53 52 -43 68 4
6 38 11 82 11 l74 0 0 29 c0 44 -41 81 -89 81 -32 0 -44 -6 -65 -31z m114 -11
c36 -39 27 -48 -50 -48 -77 0 -86 9 -50 48 12 13 33 22 50 22 17 0 38 -9 50
-22z"/>
<path d="M3225 1085 c-20 -19 -25 -34 -25 -75 0 -60 19 -94 61 -109 50 -17
110 15 109 61 0 7 -8 4 -18 -9 -39 -50 -95 -48 -123 3 -18 35 -4 44 77 44 68
0 74 2 74 21 0 25 -18 60 -39 76 -28 22 -89 16 -116 -12z m115 -17 c31 -33 20
-43 -50 -43 -35 0 -65 5 -67 10 -6 20 37 55 67 55 17 0 38 -9 50 -22z"/>
<path d="M3531 1101 c-7 -5 -21 -6 -31 -4 -17 5 -18 -3 -17 -84 2 -109 20
-121 27 -18 5 81 14 95 61 95 45 0 59 -27 59 -114 0 -49 4 -75 10 -71 6 3 10
38 10 76 0 68 -11 106 -34 121 -15 10 -68 10 -85 -1z"/>
</g>
</svg>
