<?xml version="1.0" standalone="no"?>
<!DOCTYPE svg PUBLIC "-//W3C//DTD SVG 20010904//EN"
 "http://www.w3.org/TR/2001/REC-SVG-20010904/DTD/svg10.dtd">
<svg version="1.0" xmlns="http://www.w3.org/2000/svg"
 width="400.000000pt" height="269.000000pt" viewBox="0 0 400.000000 269.000000"
 preserveAspectRatio="xMidYMid meet">

<g transform="translate(0.000000,269.000000) scale(0.100000,-0.100000)"
fill="#000000" stroke="none">
<path d="M360 1707 c-81 -27 -130 -93 -130 -173 0 -52 -1 -54 -35 -68 -31 -13
-35 -19 -35 -50 0 -32 4 -36 33 -44 l32 -8 3 -106 c2 -88 6 -108 21 -122 13
-12 27 -15 45 -10 14 3 27 7 27 8 1 0 4 53 8 116 l6 115 190 3 c179 2 191 3
208 23 22 27 21 35 -3 59 -19 19 -33 20 -210 20 l-190 0 0 48 c0 38 5 53 23
70 22 21 33 22 190 22 154 0 169 2 187 20 25 25 25 32 1 61 -19 23 -24 24
-178 26 -102 1 -170 -2 -193 -10z"/>
<path d="M2892 1694 c-10 -11 -12 -65 -10 -237 l3 -224 27 -41 c34 -51 74 -73
148 -79 49 -5 60 -3 79 16 45 45 11 91 -70 91 -81 0 -83 7 -87 253 -2 130 -7
216 -14 224 -14 17 -60 16 -76 -3z"/>
<path d="M925 1472 c-49 -23 -79 -55 -100 -104 -20 -48 -19 -74 4 -123 50
-108 78 -117 343 -114 166 3 212 6 221 18 8 9 11 49 10 111 -1 103 -12 137
-55 176 -48 44 -68 48 -228 52 -136 2 -160 0 -195 -16z m355 -114 c28 -30 27
-82 -2 -102 -34 -24 -314 -23 -340 1 -25 22 -23 71 4 100 21 22 28 23 169 23
140 0 149 -1 169 -22z"/>
<path d="M2335 1474 c-93 -23 -137 -74 -143 -168 -3 -53 0 -66 24 -102 46 -71
68 -79 240 -82 170 -4 218 5 268 48 33 29 56 88 56 141 0 42 -41 109 -83 137
-39 26 -46 27 -191 29 -83 1 -160 0 -171 -3z m324 -130 c28 -36 26 -60 -8 -95
l-29 -29 -132 0 c-167 0 -200 14 -200 85 0 14 10 33 22 45 20 18 35 20 174 20
l153 0 20 -26z"/>
<path d="M3371 1469 c-69 -28 -120 -97 -121 -165 0 -17 12 -55 28 -84 21 -42
37 -60 71 -77 40 -21 58 -23 190 -23 80 0 161 4 179 9 22 7 41 6 56 -1 17 -7
30 -7 45 1 19 11 21 20 21 117 0 71 -5 114 -14 132 -21 41 -68 81 -107 92 -43
13 -316 12 -348 -1z m349 -119 c26 -26 26 -75 0 -98 -17 -14 -47 -18 -158 -22
-170 -6 -195 2 -200 67 -5 66 13 73 190 73 135 0 150 -2 168 -20z"/>
<path d="M1604 1451 c-23 -10 -54 -36 -70 -56 -26 -35 -29 -46 -32 -140 -4
-110 5 -135 52 -135 38 0 46 19 46 106 0 73 3 86 24 111 l24 28 152 0 c147 0
152 -1 171 -24 15 -19 19 -39 19 -106 0 -90 12 -115 54 -115 39 0 46 18 46
116 0 130 -21 173 -102 215 -32 16 -59 19 -190 19 -128 0 -160 -4 -194 -19z"/>
<path d="M2842 1057 c-36 -21 -40 -52 -9 -71 25 -16 51 4 55 44 5 44 -7 51
-46 27z m18 -37 c0 -5 -4 -10 -10 -10 -5 0 -10 5 -10 10 0 6 5 10 10 10 6 0
10 -4 10 -10z"/>
<path d="M3124 1055 c-8 -31 3 -78 16 -70 13 8 13 95 0 95 -5 0 -12 -11 -16
-25z"/>
<path d="M3390 1035 c0 -25 5 -45 10 -45 6 0 10 20 10 45 0 25 -4 45 -10 45
-5 0 -10 -20 -10 -45z"/>
<path d="M3456 1073 c-9 -10 -7 -52 4 -74 6 -11 21 -19 35 -19 33 0 40 17 10
24 -30 8 -33 26 -6 26 27 0 37 19 14 26 -10 3 -25 9 -34 14 -9 5 -20 6 -23 3z"/>
<path d="M3695 1068 c-9 -23 -2 -83 10 -83 14 0 19 75 6 88 -7 7 -12 5 -16 -5z"/>
<path d="M2531 1047 c-13 -13 -15 -57 -2 -57 5 0 13 9 16 20 8 26 23 26 27 0
4 -29 22 -30 26 -2 4 28 26 24 30 -6 2 -12 8 -22 13 -22 14 0 11 58 -3 67 -19
12 -95 12 -107 0z"/>
<path d="M2706 1044 c-19 -18 -19 -20 -6 -45 13 -23 58 -26 67 -3 8 21 -13 64
-31 64 -8 0 -22 -7 -30 -16z m39 -24 c3 -5 -1 -10 -9 -10 -9 0 -16 5 -16 10 0
6 4 10 9 10 6 0 13 -4 16 -10z"/>
<path d="M2946 1044 c-29 -29 -12 -64 31 -64 19 0 23 5 23 34 0 22 -6 36 -16
40 -21 8 -20 8 -38 -10z m39 -24 c3 -5 -1 -10 -9 -10 -9 0 -16 5 -16 10 0 6 4
10 9 10 6 0 13 -4 16 -10z"/>
<path d="M3213 1052 c-17 -11 -27 -59 -14 -67 6 -3 15 5 21 20 10 26 30 26 30
-1 0 -8 5 -14 10 -14 16 0 12 37 -6 54 -17 18 -24 19 -41 8z"/>
<path d="M3578 1034 c-11 -23 -10 -28 7 -40 44 -32 88 12 50 50 -24 23 -44 20
-57 -10z m42 -14 c0 -5 -4 -10 -10 -10 -5 0 -10 5 -10 10 0 6 5 10 10 10 6 0
10 -4 10 -10z"/>
<path d="M3760 1023 c1 -29 20 -63 36 -63 13 0 44 54 44 74 0 9 -7 16 -15 16
-8 0 -15 -9 -15 -20 0 -11 -7 -20 -15 -20 -8 0 -15 9 -15 20 0 11 -4 20 -10
20 -5 0 -10 -12 -10 -27z"/>
</g>
</svg>
