<?xml version="1.0" standalone="no"?>
<!DOCTYPE svg PUBLIC "-//W3C//DTD SVG 20010904//EN"
 "http://www.w3.org/TR/2001/REC-SVG-20010904/DTD/svg10.dtd">
<svg version="1.0" xmlns="http://www.w3.org/2000/svg"
 width="400.000000pt" height="321.000000pt" viewBox="0 0 400.000000 321.000000"
 preserveAspectRatio="xMidYMid meet">

<g transform="translate(0.000000,321.000000) scale(0.100000,-0.100000)"
fill="#000000" stroke="none">
<path d="M1922 2846 c-110 -21 -212 -74 -286 -148 -119 -122 -166 -255 -166
-476 0 -153 15 -231 62 -329 126 -259 527 -370 826 -228 121 57 237 190 258
293 l7 32 -153 0 -152 0 -51 -54 c-79 -83 -175 -103 -308 -66 -92 26 -167 124
-177 231 l-5 49 433 0 433 0 -6 123 c-14 301 -155 498 -402 562 -86 22 -226
27 -313 11z m220 -256 c84 -24 157 -109 173 -202 l6 -38 -266 0 c-300 0 -280
-7 -249 83 21 61 88 134 139 152 48 17 145 19 197 5z"/>
<path d="M538 2831 c-155 -51 -256 -168 -320 -371 -20 -66 -23 -95 -23 -235 0
-149 2 -166 28 -239 48 -135 106 -214 208 -279 84 -54 152 -70 278 -65 91 3
114 7 163 31 33 16 76 49 102 78 24 27 46 49 49 49 10 0 -5 -199 -20 -250 -20
-74 -70 -123 -148 -145 -117 -35 -261 1 -287 71 l-12 34 -169 0 -170 0 7 -42
c23 -145 149 -253 338 -292 98 -20 282 -21 384 -1 151 29 277 112 329 219 52
107 55 140 55 814 l0 622 -150 0 -150 0 0 -82 -1 -83 -27 35 c-43 56 -82 90
-136 118 -44 23 -65 26 -161 29 -87 2 -122 -1 -167 -16z m339 -272 c54 -26 97
-78 125 -149 29 -76 31 -249 4 -332 -37 -115 -122 -178 -237 -178 -81 0 -133
24 -182 81 -52 60 -72 131 -72 254 0 175 42 272 137 319 68 34 161 36 225 5z"/>
<path d="M3253 2836 c-63 -20 -107 -52 -163 -114 l-50 -56 0 77 0 77 -150 0
-150 0 0 -590 0 -590 155 0 154 0 3 388 3 387 28 58 c34 68 77 101 154 117 71
15 151 -1 189 -38 58 -58 59 -60 62 -505 l3 -408 157 3 157 3 0 445 c0 438 0
446 -23 519 -20 63 -32 83 -80 131 -81 80 -142 103 -292 107 -77 2 -129 -2
-157 -11z"/>
<path d="M3205 1537 c-127 -33 -215 -99 -262 -196 -36 -73 -39 -190 -7 -261
57 -125 132 -168 413 -236 257 -63 334 -123 335 -259 1 -113 -48 -192 -147
-236 -46 -21 -67 -24 -177 -24 -114 0 -130 2 -180 26 -94 44 -160 133 -176
236 l-6 43 -59 0 c-67 0 -66 2 -48 -95 29 -157 137 -264 309 -306 75 -18 240
-16 319 5 131 34 228 112 266 217 30 83 27 210 -9 283 -57 116 -137 158 -434
227 -142 33 -194 54 -245 99 -120 105 -75 288 88 361 66 30 214 33 291 6 97
-34 159 -107 173 -206 l6 -46 58 -3 c54 -3 57 -2 57 20 0 49 -32 145 -65 195
-38 57 -102 106 -179 136 -65 25 -248 33 -321 14z"/>
<path d="M1682 1048 c3 -466 3 -474 26 -538 47 -132 126 -218 237 -259 84 -31
217 -44 315 -31 201 27 314 115 373 290 21 63 22 82 25 538 l3 472 -60 0 -60
0 -3 -467 c-4 -427 -6 -472 -23 -518 -57 -154 -153 -215 -336 -215 -115 0
-179 14 -236 53 -63 42 -99 99 -123 193 -18 71 -20 112 -20 516 l0 438 -60 0
-61 0 3 -472z"/>
</g>
</svg>
