<?xml version="1.0" encoding="UTF-8"?>
<svg version="1.1" xmlns="http://www.w3.org/2000/svg" width="120" height="120">
<path d="M0 0 C0.66 0 1.32 0 2 0 C2.309375 1.134375 2.61875 2.26875 2.9375 3.4375 C3.62924531 6.78775099 3.62924531 6.78775099 5 8 C8.03075451 8.12339241 11.04219513 8.18619464 14.07421875 8.2109375 C15.95769078 8.23901953 17.8411542 8.26768407 19.72460938 8.296875 C22.7023889 8.3380594 25.68000998 8.37493352 28.65795898 8.40136719 C31.52622041 8.42905449 34.39374358 8.47494278 37.26171875 8.5234375 C38.14631271 8.52669037 39.03090668 8.52994324 39.94230652 8.53329468 C45.01995593 8.63377204 48.60881661 9.16544287 53 12 C55.91789122 16.37683683 55.3925215 21.93062652 55 27 C54.22665458 30.30429405 53.63557634 31.48726221 51.01171875 33.60400391 C46.80061259 35.55594173 43.0884191 35.43020202 38.5 35.3984375 C37.58669922 35.40130768 36.67339844 35.40417786 35.73242188 35.40713501 C33.80598326 35.40917189 31.87952378 35.40366835 29.953125 35.39111328 C27.00994476 35.37505426 24.0681377 35.3909747 21.125 35.41015625 C19.24999698 35.40817375 17.37499481 35.40432994 15.5 35.3984375 C14.18418945 35.40754654 14.18418945 35.40754654 12.84179688 35.4168396 C8.09042376 35.36233487 4.84098817 35.12175551 1 32 C-0.46098845 29.0780231 -0.11134901 26.50106525 -0.09765625 23.2421875 C-0.0962413 22.57913605 -0.09482635 21.91608459 -0.09336853 21.23294067 C-0.08776754 19.11358137 -0.075215 16.99432741 -0.0625 14.875 C-0.05748512 13.43880361 -0.05292219 12.00260556 -0.04882812 10.56640625 C-0.03779782 7.04423655 -0.02053259 3.52212855 0 0 Z M2 9 C1.91293108 12.27066566 1.85958759 15.54103365 1.8125 18.8125 C1.78736328 19.74126953 1.76222656 20.67003906 1.73632812 21.62695312 C1.72666016 22.51962891 1.71699219 23.41230469 1.70703125 24.33203125 C1.6913208 25.15421143 1.67561035 25.9763916 1.65942383 26.82348633 C2.09037726 29.57757224 2.83291073 30.28819266 5 32 C7.09834736 32.44566315 7.09834736 32.44566315 9.43969727 32.37231445 C10.33394913 32.37854324 11.22820099 32.38477203 12.14955139 32.39118958 C13.59339455 32.37737495 13.59339455 32.37737495 15.06640625 32.36328125 C16.05624008 32.36377975 17.04607391 32.36427826 18.06590271 32.36479187 C20.158132 32.36245128 22.25036409 32.35272367 24.3425293 32.33618164 C27.55347728 32.31256636 30.76359651 32.31562368 33.97460938 32.32226562 C36.00521331 32.31668977 38.03581373 32.30958047 40.06640625 32.30078125 C41.03099258 32.30169266 41.99557892 32.30260406 42.98939514 32.30354309 C44.32604469 32.28924507 44.32604469 32.28924507 45.68969727 32.2746582 C46.86859276 32.26774712 46.86859276 32.26774712 48.07130432 32.26069641 C50.23779036 32.16622175 50.23779036 32.16622175 52 30 C52.19852102 27.29077199 52.27839477 24.70696821 52.25 22 C52.25773437 21.26265625 52.26546875 20.5253125 52.2734375 19.765625 C52.41008865 15.41578097 52.41008865 15.41578097 50 12 C48.09827398 11.68440269 48.09827398 11.68440269 45.9050293 11.71289062 C45.06042648 11.69947632 44.21582367 11.68606201 43.34562683 11.67224121 C42.43106216 11.66696411 41.5164975 11.66168701 40.57421875 11.65625 C39.63447708 11.6416272 38.69473541 11.62700439 37.72651672 11.61193848 C34.71355457 11.56532881 31.70065877 11.53120454 28.6875 11.5 C24.73282979 11.45882861 20.77862165 11.40509493 16.82421875 11.34375 C15.91572678 11.3384729 15.0072348 11.3331958 14.07121277 11.32775879 C9.61701354 11.25779878 6.04651979 11.0994759 2 9 Z " fill="#030605" transform="translate(33,43)"/>
<path d="M0 0 C2.31 0 4.62 0 7 0 C7 2.31 7 4.62 7 7 C4.69 7 2.38 7 0 7 C0 4.69 0 2.38 0 0 Z " fill="#040706" transform="translate(51,64)"/>
<path d="M0 0 C13.53 0 27.06 0 41 0 C41 0.33 41 0.66 41 1 C27.47 1 13.94 1 0 1 C0 0.67 0 0.34 0 0 Z " fill="#040605" transform="translate(41,56)"/>
<path d="M0 0 C1.65 0 3.3 0 5 0 C5 2.31 5 4.62 5 7 C3.35 7 1.7 7 0 7 C0 4.69 0 2.38 0 0 Z " fill="#040706" transform="translate(59,64)"/>
<path d="M0 0 C0.33 0 0.66 0 1 0 C1 8.91 1 17.82 1 27 C0.67 27 0.34 27 0 27 C0 18.09 0 9.18 0 0 Z " fill="#030505" transform="translate(31,45)"/>
<path d="M0 0 C1.98 0 3.96 0 6 0 C5.34 2.31 4.68 4.62 4 7 C3.34 7 2.68 7 2 7 C0.5393715 4.35261084 0 3.10551666 0 0 Z " fill="#040706" transform="translate(66,64)"/>
<path d="M0 0 C0.33 0 0.66 0 1 0 C1 5.94 1 11.88 1 18 C0.67 18 0.34 18 0 18 C0 12.06 0 6.12 0 0 Z " fill="#030605" transform="translate(36,54)"/>
<path d="M0 0 C2.475 0.495 2.475 0.495 5 1 C4.01 2.485 4.01 2.485 3 4 C2.01 3.67 1.02 3.34 0 3 C0 2.01 0 1.02 0 0 Z " fill="#040706" transform="translate(73,67)"/>
<path d="M0 0 C0.33 0 0.66 0 1 0 C1 4.95 1 9.9 1 15 C0.67 15 0.34 15 0 15 C0 10.05 0 5.1 0 0 Z " fill="#020505" transform="translate(83,58)"/>
<path d="M0 0 C0.99 1.485 0.99 1.485 2 3 C1.34 3 0.68 3 0 3 C0 2.01 0 1.02 0 0 Z " fill="#040706" transform="translate(71,68)"/>
<path d="M0 0 C1.485 0.99 1.485 0.99 3 2 C2.01 2 1.02 2 0 2 C0 1.34 0 0.68 0 0 Z " fill="#040706" transform="translate(73,64)"/>
<path d="M0 0 C4 1 4 1 4 1 Z " fill="#060606" transform="translate(60,62)"/>
<path d="M0 0 C2 1 2 1 2 1 Z " fill="#030505" transform="translate(81,73)"/>
<path d="M0 0 C2 1 2 1 2 1 Z " fill="#020404" transform="translate(38,73)"/>
<path d="M0 0 C2 1 2 1 2 1 Z " fill="#060606" transform="translate(66,62)"/>
<path d="" fill="#030605" transform="translate(0,0)"/>
<path d="M0 0 C2 1 2 1 2 1 Z " fill="#050505" transform="translate(81,51)"/>
<path d="M0 0 C2 1 2 1 2 1 Z " fill="#040706" transform="translate(38,50)"/>
<path d="" fill="#040706" transform="translate(0,0)"/>
<path d="" fill="#040706" transform="translate(0,0)"/>
<path d="" fill="#020403" transform="translate(0,0)"/>
<path d="" fill="#030303" transform="translate(0,0)"/>
<path d="" fill="#020403" transform="translate(0,0)"/>
<path d="" fill="#030505" transform="translate(0,0)"/>
<path d="" fill="#050505" transform="translate(0,0)"/>
<path d="" fill="#030505" transform="translate(0,0)"/>
<path d="" fill="#030505" transform="translate(0,0)"/>
<path d="" fill="#030505" transform="translate(0,0)"/>
<path d="" fill="#030505" transform="translate(0,0)"/>
<path d="" fill="#030505" transform="translate(0,0)"/>
<path d="" fill="#040706" transform="translate(0,0)"/>
<path d="" fill="#030505" transform="translate(0,0)"/>
<path d="" fill="#040706" transform="translate(0,0)"/>
<path d="" fill="#040706" transform="translate(0,0)"/>
<path d="" fill="#040706" transform="translate(0,0)"/>
<path d="" fill="#040706" transform="translate(0,0)"/>
<path d="" fill="#060606" transform="translate(0,0)"/>
<path d="" fill="#040706" transform="translate(0,0)"/>
<path d="" fill="#030706" transform="translate(0,0)"/>
<path d="" fill="#030505" transform="translate(0,0)"/>
<path d="" fill="#020403" transform="translate(0,0)"/>
<path d="" fill="#040706" transform="translate(0,0)"/>
<path d="" fill="#030505" transform="translate(0,0)"/>
<path d="" fill="#050505" transform="translate(0,0)"/>
<path d="" fill="#050505" transform="translate(0,0)"/>
</svg>
