<?xml version="1.0" standalone="no"?>
<!DOCTYPE svg PUBLIC "-//W3C//DTD SVG 20010904//EN"
 "http://www.w3.org/TR/2001/REC-SVG-20010904/DTD/svg10.dtd">
<svg version="1.0" xmlns="http://www.w3.org/2000/svg"
 width="400.000000pt" height="259.000000pt" viewBox="0 0 400.000000 259.000000"
 preserveAspectRatio="xMidYMid meet">

<g transform="translate(0.000000,259.000000) scale(0.100000,-0.100000)"
fill="#000000" stroke="none">
<path d="M2707 2141 c-82 -77 -101 -133 -94 -271 3 -58 13 -134 21 -170 9 -36
21 -85 27 -110 21 -85 23 -222 5 -281 -37 -115 -124 -165 -219 -125 -72 30
-113 126 -105 244 9 129 77 210 190 229 62 9 39 28 -33 27 -195 -2 -319 -174
-266 -371 7 -29 28 -64 55 -95 37 -40 55 -51 114 -69 82 -25 161 -22 229 9
149 67 194 234 131 487 -60 243 -65 426 -12 498 40 53 14 52 -43 -2z"/>
<path d="M572 1898 c-17 -17 -17 -729 0 -746 8 -8 68 -12 204 -12 158 0 194 3
204 15 10 12 10 18 0 30 -9 11 -43 15 -148 17 l-137 3 -3 339 c-1 230 -6 344
-13 353 -14 16 -91 17 -107 1z"/>
<path d="M1174 1676 c-17 -6 -49 -23 -71 -38 -184 -122 -153 -410 51 -487 72
-27 138 -27 221 0 121 40 184 147 172 290 -7 80 -25 118 -80 170 -74 69 -204
98 -293 65z m156 -48 c63 -32 92 -88 98 -189 6 -101 -11 -167 -54 -218 -40
-46 -97 -61 -158 -41 -73 24 -123 133 -113 250 10 121 38 173 112 206 42 19
65 17 115 -8z"/>
<path d="M1855 1674 c-22 -8 -51 -26 -65 -39 -33 -32 -38 -31 -42 2 -4 35 -45
52 -83 35 l-25 -12 0 -249 c0 -277 -1 -275 67 -269 l38 3 5 185 c5 199 12 226
62 263 33 25 114 33 148 15 51 -27 60 -66 60 -264 0 -203 1 -208 67 -202 l38
3 3 195 c2 113 -1 210 -7 230 -28 96 -154 145 -266 104z"/>
<path d="M3053 1677 c-61 -23 -121 -74 -150 -129 -24 -47 -27 -64 -27 -148 -1
-103 11 -138 63 -193 83 -90 246 -100 332 -21 31 30 39 30 39 1 0 -13 5 -28
12 -35 16 -16 70 -16 86 0 17 17 17 499 0 516 -7 7 -26 12 -43 12 -37 0 -55
-16 -55 -47 0 -28 -11 -30 -27 -4 -31 50 -154 76 -230 48z m184 -68 c42 -26
63 -65 73 -142 18 -126 -31 -246 -113 -276 -75 -29 -146 3 -185 81 -51 101
-23 274 52 333 41 33 123 35 173 4z"/>
<path d="M570 797 c0 -68 3 -127 6 -130 4 -3 15 -2 25 4 14 7 19 21 19 49 0
38 2 40 30 40 37 0 85 23 94 45 13 34 6 72 -17 93 -19 18 -35 22 -90 22 l-67
0 0 -123z m118 74 c8 -4 12 -19 10 -32 -2 -20 -10 -25 -40 -27 -37 -3 -38 -3
-38 32 0 33 3 36 28 36 15 0 33 -4 40 -9z"/>
<path d="M820 801 c0 -95 3 -121 15 -131 22 -18 33 -3 37 50 4 65 30 66 62 2
26 -51 52 -70 69 -53 7 7 2 25 -13 54 l-24 44 22 28 c29 36 28 70 -3 100 -21
22 -33 25 -95 25 l-70 0 0 -119z m131 63 c20 -24 -1 -49 -42 -49 -35 0 -47 18
-35 51 7 19 60 18 77 -2z"/>
<path d="M1109 894 c-21 -22 -24 -35 -24 -101 0 -72 1 -76 33 -104 18 -16 42
-29 55 -29 32 0 86 36 97 66 25 63 4 161 -39 184 -37 20 -96 12 -122 -16z
m101 -33 c15 -30 13 -126 -4 -141 -25 -20 -59 -8 -68 25 -11 38 -2 116 15 127
21 14 46 9 57 -11z"/>
<path d="M1354 906 c-3 -7 -4 -63 -2 -122 3 -103 4 -109 25 -112 20 -3 22 2
25 45 l3 48 50 5 c42 4 50 8 50 25 0 17 -8 21 -45 23 -53 4 -64 12 -55 41 5
17 16 21 63 23 43 2 57 7 57 18 0 22 -163 28 -171 6z"/>
<path d="M1600 795 l0 -126 83 3 c65 2 82 6 82 18 0 11 -14 16 -57 18 -57 3
-58 4 -58 32 0 27 2 29 48 32 39 3 47 6 47 23 0 17 -8 20 -47 23 -46 3 -48 5
-48 32 0 28 1 29 57 32 46 2 59 7 61 21 3 15 -6 17 -82 17 l-86 0 0 -125z"/>
<path d="M1872 913 c-19 -8 -43 -60 -35 -80 11 -33 35 -53 72 -59 50 -9 63
-21 50 -46 -9 -17 -19 -19 -66 -16 -65 4 -80 -13 -34 -36 38 -20 74 -20 110
-1 73 37 43 145 -39 145 -37 0 -57 24 -39 46 10 12 24 15 56 10 48 -6 67 9 38
31 -18 13 -87 17 -113 6z"/>
<path d="M2102 897 c-44 -46 -18 -113 47 -123 55 -9 69 -19 55 -41 -13 -21
-55 -28 -82 -14 -13 7 -22 7 -30 -1 -22 -22 -12 -37 28 -48 72 -19 139 13 140
68 0 48 -26 70 -103 87 -22 4 -28 11 -25 28 3 19 9 22 52 22 33 0 51 5 54 14
7 20 -17 31 -69 31 -35 0 -51 -5 -67 -23z"/>
<path d="M2337 914 c-4 -4 -7 -60 -7 -125 0 -99 3 -118 16 -123 37 -14 45 11
42 133 -3 108 -4 116 -23 119 -12 2 -24 0 -28 -4z"/>
<path d="M2495 895 c-22 -21 -25 -33 -25 -92 0 -37 6 -79 13 -93 32 -64 135
-61 163 5 25 61 13 163 -23 191 -31 23 -100 18 -128 -11z m99 -31 c19 -19 22
-124 4 -142 -7 -7 -21 -12 -33 -12 -34 0 -45 20 -45 85 0 34 5 66 12 73 17 17
44 15 62 -4z"/>
<path d="M2742 793 c3 -120 4 -128 23 -128 18 0 21 8 25 75 l5 75 38 -59 c22
-33 41 -65 44 -72 6 -17 39 -24 52 -11 7 7 11 58 11 129 l0 118 -25 0 c-24 0
-25 -2 -25 -72 l-1 -73 -25 30 c-14 17 -36 49 -50 73 -19 31 -32 42 -50 42
l-25 0 3 -127z"/>
<path d="M3060 828 c-18 -51 -39 -106 -47 -122 -11 -22 -12 -30 -3 -36 19 -12
48 0 53 21 7 28 93 28 102 0 7 -23 35 -35 48 -22 7 7 7 18 0 33 -6 13 -26 66
-45 118 -26 75 -38 96 -54 98 -18 3 -25 -10 -54 -90z m76 -46 c6 -30 4 -32
-20 -32 -29 0 -32 13 -16 56 13 32 27 23 36 -24z"/>
<path d="M3292 793 l3 -126 73 0 c72 0 101 11 88 32 -4 6 -32 11 -62 11 l-54
0 0 105 0 105 -25 0 -26 0 3 -127z"/>
</g>
</svg>
