<?xml version="1.0" standalone="no"?>
<!DOCTYPE svg PUBLIC "-//W3C//DTD SVG 20010904//EN"
 "http://www.w3.org/TR/2001/REC-SVG-20010904/DTD/svg10.dtd">
<svg version="1.0" xmlns="http://www.w3.org/2000/svg"
 width="400.000000pt" height="308.000000pt" viewBox="0 0 400.000000 308.000000"
 preserveAspectRatio="xMidYMid meet">

<g transform="translate(0.000000,308.000000) scale(0.100000,-0.100000)"
fill="#000000" stroke="none">
<path d="M1595 2798 c-3 -7 -6 -89 -7 -183 l-3 -170 -156 -7 c-171 -8 -241
-26 -301 -76 -95 -80 -88 -249 15 -323 41 -30 151 -69 193 -69 33 0 30 -18 -3
-25 -52 -11 -148 -65 -175 -99 -43 -54 -58 -109 -58 -223 0 -157 -20 -187
-117 -179 -35 3 -63 1 -63 -3 0 -23 38 -35 124 -39 83 -3 94 -2 126 20 50 34
78 81 84 141 3 29 10 99 17 157 19 181 62 225 224 225 l90 0 0 -260 0 -260
-125 -5 -125 -5 -3 -27 -3 -28 441 0 441 0 -3 28 -3 27 -133 3 -132 3 2 262 3
262 80 3 c90 3 252 -21 298 -44 49 -26 111 -97 129 -150 10 -27 25 -112 33
-189 9 -77 20 -176 25 -219 6 -44 10 -94 10 -113 0 -18 10 -55 22 -81 36 -79
74 -119 146 -154 62 -31 74 -33 167 -33 101 0 224 25 245 50 13 16 1 57 -16
51 -41 -16 -135 -28 -166 -22 -95 18 -124 85 -121 276 5 239 -29 361 -126 459
-31 31 -84 71 -119 89 -67 36 -194 82 -224 82 -10 0 -18 4 -18 8 0 5 45 16
101 26 318 53 457 188 447 436 -4 105 -29 163 -104 236 -82 80 -170 116 -348
139 -146 20 -804 22 -811 3z m729 -63 c79 -15 145 -46 178 -82 10 -10 27 -41
40 -68 20 -45 23 -65 22 -195 0 -134 -2 -149 -25 -200 -68 -147 -143 -178
-430 -181 l-164 -1 -3 371 -2 371 152 0 c95 0 183 -6 232 -15z m-750 -331 c14
-5 16 -33 16 -204 0 -146 -3 -200 -12 -207 -18 -14 -91 -15 -176 -4 -133 17
-172 66 -172 217 0 162 46 199 252 203 42 0 83 -2 92 -5z"/>
<path d="M1368 1298 c8 -8 12 -60 12 -169 0 -142 -2 -158 -17 -162 -10 -3 39
-5 110 -6 l127 -1 0 43 -1 42 -20 -37 c-19 -38 -20 -38 -84 -38 l-65 0 0 170
0 170 -37 0 c-29 0 -34 -3 -25 -12z"/>
<path d="M1657 1294 c-16 -16 -6 -35 16 -32 12 2 22 10 22 18 0 16 -26 25 -38
14z"/>
<path d="M1650 1168 c-1 -2 -2 -49 -3 -105 -2 -111 1 -117 53 -102 16 4 19 7
8 8 -16 1 -18 13 -18 101 0 93 -1 100 -20 100 -11 0 -20 -1 -20 -2z"/>
<path d="M1779 1163 c0 -5 0 -48 1 -97 1 -64 -2 -91 -12 -97 -8 -6 4 -9 32 -9
30 0 40 3 31 9 -11 7 -13 27 -9 88 3 44 2 87 -4 96 -9 17 -37 24 -39 10z"/>
<path d="M1903 1152 c21 -23 25 -177 5 -185 -7 -3 7 -5 32 -5 25 0 39 2 33 5
-9 3 -13 31 -13 87 0 88 -13 116 -55 116 -17 0 -17 -1 -2 -18z"/>
<path d="M2047 1140 c-28 -23 -43 -74 -33 -115 8 -31 40 -65 62 -65 14 0 14 1
0 16 -10 9 -16 33 -16 60 l0 44 70 0 c63 0 70 2 70 20 0 21 -33 60 -51 60 -7
0 -6 -9 4 -23 22 -34 8 -49 -44 -45 -49 3 -62 24 -34 52 23 23 3 20 -28 -4z"/>
<path d="M1212 513 c-36 -14 -34 -62 5 -101 14 -15 13 -17 -30 -79 -33 -46
-31 -59 5 -49 14 3 35 27 54 59 l31 54 -23 21 c-29 25 -31 56 -4 75 30 21 2
36 -38 20z"/>
<path d="M1299 513 c0 -4 0 -52 1 -106 1 -66 -2 -103 -11 -113 -11 -13 -8 -15
25 -12 l37 3 1 115 1 115 -27 3 c-14 2 -26 0 -27 -5z"/>
<path d="M2672 513 c-4 -2 -5 -47 -4 -101 3 -82 1 -102 -13 -115 -15 -16 -13
-17 31 -17 37 0 45 3 36 12 -8 8 -12 46 -12 105 0 77 3 95 16 100 45 17 73
-57 33 -87 l-22 -17 34 -57 c28 -46 38 -56 61 -56 16 0 28 1 28 3 0 2 -18 28
-40 57 l-40 54 25 26 c28 30 32 62 9 81 -13 10 -118 19 -142 12z"/>
<path d="M1460 391 c0 -44 -3 -86 -6 -95 -5 -14 3 -16 55 -16 34 0 61 3 61 8
0 4 -18 6 -40 4 -36 -4 -40 -2 -46 24 -4 15 -2 35 4 45 8 12 8 20 2 24 -14 9
-12 59 2 73 9 9 7 12 -10 12 -21 0 -22 -4 -22 -79z"/>
<path d="M1530 466 c0 -2 9 -6 20 -9 11 -3 20 -1 20 4 0 5 -9 9 -20 9 -11 0
-20 -2 -20 -4z"/>
<path d="M1875 375 c0 -78 3 -95 15 -95 12 0 15 17 15 95 0 78 -3 95 -15 95
-12 0 -15 -17 -15 -95z"/>
<path d="M2216 456 c21 -15 30 -14 19 3 -3 6 -14 11 -23 11 -13 0 -13 -2 4
-14z"/>
<path d="M2276 462 c-2 -4 8 -8 22 -7 l27 0 3 -87 c2 -61 7 -88 15 -88 8 0 12
26 12 87 l0 88 30 6 c21 5 10 7 -37 8 -37 0 -69 -3 -72 -7z"/>
<path d="M2507 463 c-11 -10 -8 -43 3 -43 6 0 10 -5 10 -10 0 -6 9 -30 20 -52
11 -23 20 -50 20 -60 0 -11 7 -18 20 -18 21 0 26 10 12 26 -5 5 -21 41 -37 79
-31 77 -38 89 -48 78z"/>
<path d="M1705 449 c-4 -5 0 -18 8 -27 8 -9 18 -28 22 -42 4 -14 14 -34 21
-45 8 -11 14 -27 14 -37 0 -11 7 -18 20 -18 18 0 17 6 -16 78 -20 42 -38 83
-41 90 -6 15 -20 16 -28 1z"/>
<path d="M2130 441 c-5 -11 -10 -24 -10 -30 0 -22 41 -51 70 -51 29 0 34 -7
31 -42 -3 -28 18 -21 25 9 6 20 2 31 -16 45 -12 10 -32 18 -45 18 -29 0 -48
24 -40 50 8 25 -1 26 -15 1z"/>
<path d="M1536 381 c-3 -5 1 -11 9 -15 9 -3 15 0 15 9 0 16 -16 20 -24 6z"/>
<path d="M1677 373 c-4 -3 -7 -13 -7 -22 1 -13 3 -13 11 2 11 19 8 33 -4 20z"/>
<path d="M2437 306 c-4 -10 -5 -21 -2 -24 9 -9 17 6 13 25 -3 17 -4 17 -11 -1z"/>
<path d="M1637 303 c-12 -11 -8 -23 8 -23 8 0 15 7 15 15 0 16 -12 20 -23 8z"/>
<path d="M2130 290 c0 -6 7 -10 15 -10 8 0 15 2 15 4 0 2 -7 6 -15 10 -8 3
-15 1 -15 -4z"/>
<path d="M1938 283 c12 -2 30 -2 40 0 9 3 -1 5 -23 4 -22 0 -30 -2 -17 -4z"/>
</g>
</svg>
