<?xml version="1.0" standalone="no"?>
<!DOCTYPE svg PUBLIC "-//W3C//DTD SVG 20010904//EN"
 "http://www.w3.org/TR/2001/REC-SVG-20010904/DTD/svg10.dtd">
<svg version="1.0" xmlns="http://www.w3.org/2000/svg"
 width="400.000000pt" height="267.000000pt" viewBox="0 0 400.000000 267.000000"
 preserveAspectRatio="xMidYMid meet">

<g transform="translate(0.000000,267.000000) scale(0.100000,-0.100000)"
fill="#000000" stroke="none">
<path d="M898 1504 c-4 -3 4 -29 16 -57 13 -29 32 -72 42 -96 95 -221 113
-256 134 -256 26 0 38 21 130 230 73 167 78 185 58 185 -26 0 -37 -19 -105
-179 -38 -91 -74 -166 -79 -168 -5 -1 -24 34 -43 80 -54 132 -103 241 -114
255 -10 13 -30 16 -39 6z"/>
<path d="M2970 1491 c0 -11 5 -23 10 -26 6 -3 10 -2 10 4 0 5 3 16 6 25 4 11
1 16 -10 16 -9 0 -16 -8 -16 -19z"/>
<path d="M3016 1503 c-2 -2 -2 -12 1 -22 3 -12 14 -18 34 -17 16 1 29 4 29 9
0 4 0 13 0 20 0 11 -54 20 -64 10z"/>
<path d="M1404 1380 c-96 -49 -113 -182 -32 -257 33 -31 99 -46 146 -34 41 12
82 37 82 52 0 14 -43 10 -64 -6 -45 -34 -134 -7 -157 46 -18 44 -5 51 85 49
154 -4 146 -6 146 40 0 33 -7 48 -38 81 -48 52 -104 62 -168 29z m111 -30 c21
-8 55 -60 55 -85 0 -3 -45 -5 -100 -5 -95 0 -100 1 -100 21 0 11 13 34 29 50
31 31 68 37 116 19z"/>
<path d="M1815 1384 c-16 -8 -38 -23 -47 -31 -18 -16 -20 -14 -22 17 -1 8 -11
16 -24 18 l-23 3 3 -148 c3 -140 4 -148 23 -148 18 0 20 8 23 93 3 90 3 93 38
127 21 22 44 35 60 35 20 0 25 4 22 22 -4 28 -17 31 -53 12z"/>
<path d="M1984 1386 c-22 -10 -36 -25 -44 -50 -17 -52 3 -75 92 -106 72 -25
73 -26 73 -60 0 -29 -5 -36 -28 -44 -26 -9 -50 -5 -129 21 -32 10 -20 -25 13
-43 64 -33 166 -15 188 32 27 60 3 94 -88 126 -71 25 -93 47 -75 76 11 17 55
21 128 11 38 -5 44 14 10 30 -43 19 -106 23 -140 7z"/>
<path d="M2723 1393 c-12 -2 -27 -11 -33 -19 -16 -19 -30 -18 -30 2 0 10 -7
14 -22 12 -22 -3 -23 -7 -26 -128 -3 -144 1 -173 26 -168 14 3 18 20 22 111 5
104 6 110 33 133 37 31 81 31 112 -1 24 -23 25 -31 25 -135 0 -110 0 -111 23
-108 21 3 22 7 25 113 2 105 4 111 29 134 22 19 34 22 67 18 60 -8 73 -40 75
-179 1 -82 2 -88 22 -88 20 0 21 4 17 124 -2 104 -6 127 -22 145 -41 45 -131
51 -174 11 -27 -25 -28 -25 -64 5 -28 24 -53 28 -105 18z"/>
<path d="M2240 1275 c0 -133 8 -154 71 -179 45 -18 79 -13 122 17 l28 19 6
-21 c3 -12 13 -21 24 -21 18 0 19 10 19 150 0 140 -1 150 -19 150 -17 0 -19
-10 -23 -106 -4 -106 -4 -106 -37 -136 -28 -25 -39 -29 -70 -24 -21 3 -45 16
-58 31 -21 24 -23 37 -23 131 0 97 -1 104 -20 104 -19 0 -20 -7 -20 -115z"/>
</g>
</svg>
